{
.appVersion = "1357";
copyright = "Copyright 2017-2021 Google Inc. All Rights Reserved.";
customParameters = (
{
name = glyphOrder;
value = (
.notdef,
NULL,
CR,
space,
uni00A0,
uni1720,
uni1721,
uni1722,
uni1723,
uni1724,
uni1725,
uni1726,
uni1727,
uni1728,
uni1729,
uni172A,
uni172B,
uni172C,
uni172D,
uni172E,
uni172F,
uni1730,
uni1731,
uni1732,
uni1733,
uni1734,
uni1735,
uni1736,
uni1725uni1732,
uni1725uni1733,
uni1726uni1733,
uni1727uni1732,
uni1727uni1733,
uni1729uni1732,
uni1729uni1733,
uni172Buni1733,
uni172Duni1732,
uni172Duni1733,
uni172Euni1733,
uni1730uni1733,
uni1731uni1732,
uni1731uni1733,
uni1735.alt,
uni1736.alt,
uni200B,
uni200C,
uni200D,
uni25CC
);
},
{
name = unicodeRanges;
value = (
0,
1,
31,
45,
84
);
},
{
name = "Has WWS Names";
value = 1;
},
{
name = fsType;
value = (
);
},
{
name = codePageRanges;
value = (
1252
);
},
{
name = "Don't use Production Names";
value = 1;
},
{
name = description;
value = "Designed by Monotype design team.";
},
{
name = license;
value = "This Font Software is licensed under the SIL Open Font License, Version 1.1. This Font Software is distributed on an \"AS IS\" BASIS, WITHOUT WARRANTIES OR CONDITIONS OF ANY KIND, either express or implied. See the SIL Open Font License for the specific language, permissions and limitations governing your use of this Font Software.";
},
{
name = licenseURL;
value = "http://scripts.sil.org/OFL";
},
{
name = vendorID;
value = GOOG;
},
{
name = trademark;
value = "Noto is a trademark of Google Inc.";
},
{
name = versionString;
value = "Version 2.002";
}
);
date = "2021-12-16 18:43:21 +0000";
designer = "Monotype Design Team";
designerURL = "http://www.monotype.com/studio";
disablesAutomaticAlignment = 1;
disablesNiceNames = 1;
familyName = "Noto Sans Hanunoo";
featurePrefixes = (
{
code = "languagesystem hano dflt;\012";
name = Languagesystems;
}
);
features = (
{
automatic = 1;
code = "feature salt;\012";
name = aalt;
},
{

glyphs = (
{
glyphname = .notdef;
lastChange = "2017-09-05 20:14:34 +0000";
layers = (
{
layerId = UUID0;
paths = (
{
closed = 1;
nodes = (
"505 0 LINE",
"505 714 LINE",
"94 714 LINE",
"94 0 LINE"
);
},
{
closed = 1;
nodes = (
"145 663 LINE",
"454 663 LINE",
"454 51 LINE",
"145 51 LINE"
);
}
);
width = 600;
}
);
},
{
glyphname = uni1720;
lastChange = "2017-09-05 20:14:34 +0000";
layers = (
{
layerId = UUID0;
paths = (
{
closed = 1;
nodes = (
"222 0 LINE",
"464 153 OFFCURVE",
"725 435 OFFCURVE",
"906 634 CURVE",
"810 634 LINE",
"671 480 OFFCURVE",
"499 307 OFFCURVE",
"341 175 CURVE SMOOTH",
"308 148 OFFCURVE",
"271 117 OFFCURVE",
"239 93 CURVE",
"254 142 OFFCURVE",
"262 177 OFFCURVE",
"271 216 CURVE SMOOTH",
"297 327 LINE SMOOTH",
"320 426 OFFCURVE",
"332 473 OFFCURVE",
"332 511 CURVE SMOOTH",
"332 535 OFFCURVE",
"320 559 OFFCURVE",
"289 559 CURVE SMOOTH",
"266 559 OFFCURVE",
"243 552 OFFCURVE",
"218 540 CURVE SMOOTH",
"52 459 LINE",
"31 369 LINE",
"253 478 LINE",
"143 0 LINE"
);
}
);
width = 880;
}
);
unicode = 1720;
},
{
glyphname = uni1721;
lastChange = "2017-09-05 20:14:34 +0000";
layers = (
{
layerId = UUID0;
paths = (
{
closed = 1;
nodes = (
"219 0 LINE",
"461 153 OFFCURVE",
"722 435 OFFCURVE",
"903 634 CURVE",
"807 634 LINE",
"668 480 OFFCURVE",
"496 307 OFFCURVE",
"338 175 CURVE SMOOTH",
"305 148 OFFCURVE",
"268 117 OFFCURVE",
"236 93 CURVE",
"251 142 OFFCURVE",
"259 177 OFFCURVE",
"268 216 CURVE SMOOTH",
"294 327 LINE SMOOTH",
"317 426 OFFCURVE",
"350 548 OFFCURVE",
"350 586 CURVE SMOOTH",
"350 610 OFFCURVE",
"338 634 OFFCURVE",
"307 634 CURVE SMOOTH",
"284 634 OFFCURVE",
"261 627 OFFCURVE",
"236 615 CURVE SMOOTH",
"70 535 LINE",
"49 444 LINE",
"271 553 LINE",
"140 0 LINE"
);
},
{
closed = 1;
nodes = (
"686 150 OFFCURVE",
"753 203 OFFCURVE",
"834 278 CURVE",
"784 331 LINE",
"702 254 OFFCURVE",
"631 202 OFFCURVE",
"539 141 CURVE",
"582 83 LINE"
);
}
);
width = 876;
}
);
unicode = 1721;
},
{
glyphname = uni1722;
lastChange = "2017-09-05 20:14:34 +0000";
layers = (
{
layerId = UUID0;
paths = (
{
closed = 1;
nodes = (
"213 0 LINE",
"523 304 LINE",
"523 362 LINE",
"255 362 LINE",
"523 594 LINE",
"523 634 LINE",
"469 619 OFFCURVE",
"399 611 OFFCURVE",
"332 611 CURVE SMOOTH",
"243 611 OFFCURVE",
"197 620 OFFCURVE",
"143 634 CURVE",
"117 571 LINE",
"168 551 OFFCURVE",
"235 541 OFFCURVE",
"300 541 CURVE SMOOTH",
"321 541 OFFCURVE",
"339 543 OFFCURVE",
"365 547 CURVE",
"341 529 OFFCURVE",
"320 511 OFFCURVE",
"300 494 CURVE SMOOTH",
"129 345 LINE",
"129 294 LINE",
"411 294 LINE",
"115 0 LINE"
);
}
);
width = 521;
}
);
unicode = 1722;
},
{
glyphname = uni1723;
lastChange = "2017-09-05 20:14:34 +0000";
layers = (
{
anchors = (
{
name = Anchor2;
position = "{390, 722}";
},
{
name = Anchor4;
position = "{258, 0}";
}
);
layerId = UUID0;
paths = (
{
closed = 1;
nodes = (
"160 0 LINE",
"293 350 LINE",
"331 326 OFFCURVE",
"373 311 OFFCURVE",
"423 311 CURVE SMOOTH",
"515 311 OFFCURVE",
"592 382 OFFCURVE",
"592 474 CURVE SMOOTH",
"592 572 OFFCURVE",
"523 634 OFFCURVE",
"439 634 CURVE SMOOTH",
"351 634 OFFCURVE",
"295 581 OFFCURVE",
"259 480 CURVE",
"230 519 OFFCURVE",
"208 570 OFFCURVE",
"200 634 CURVE",
"126 634 LINE",
"135 547 OFFCURVE",
"177 467 OFFCURVE",
"231 405 CURVE",
"78 0 LINE"
);
},
{
closed = 1;
nodes = (
"383 379 OFFCURVE",
"346 392 OFFCURVE",
"318 416 CURVE",
"349 505 OFFCURVE",
"382 566 OFFCURVE",
"442 566 CURVE SMOOTH",
"486 566 OFFCURVE",
"520 534 OFFCURVE",
"520 481 CURVE SMOOTH",
"520 425 OFFCURVE",
"482 379 OFFCURVE",
"420 379 CURVE SMOOTH"
);
}
);
width = 627;
}
);
unicode = 1723;
},
{
glyphname = uni1724;
lastChange = "2017-09-05 20:14:34 +0000";
layers = (
{
anchors = (
{
name = Anchor2;
position = "{585, 722}";
},
{
name = Anchor4;
position = "{527, -127}";
}
);
layerId = UUID0;
paths = (
{
closed = 1;
nodes = (
"149 0 LINE",
"475 358 LINE SMOOTH",
"501 386 OFFCURVE",
"583 478 OFFCURVE",
"608 510 CURVE",
"597 473 OFFCURVE",
"588 431 OFFCURVE",
"580 396 CURVE SMOOTH",
"488 0 LINE",
"568 0 LINE",
"714 634 LINE",
"635 634 LINE",
"291 261 LINE SMOOTH",
"243 209 OFFCURVE",
"212 168 OFFCURVE",
"176 124 CURVE",
"190 169 OFFCURVE",
"201 224 OFFCURVE",
"211 268 CURVE SMOOTH",
"296 634 LINE",
"216 634 LINE",
"70 0 LINE"
);
}
);
width = 784;
}
);
unicode = 1724;
},
{
glyphname = uni1725;
lastChange = "2017-09-05 20:14:34 +0000";
layers = (
{
layerId = UUID0;
paths = (
{
closed = 1;
nodes = (
"149 0 LINE",
"255 67 OFFCURVE",
"363 158 OFFCURVE",
"468 257 CURVE",
"661 48 LINE",
"714 96 LINE",
"522 307 LINE",
"637 419 OFFCURVE",
"744 537 OFFCURVE",
"833 634 CURVE",
"737 634 LINE",
"598 480 OFFCURVE",
"426 307 OFFCURVE",
"268 175 CURVE SMOOTH",
"235 148 OFFCURVE",
"198 117 OFFCURVE",
"166 93 CURVE",
"181 142 OFFCURVE",
"189 177 OFFCURVE",
"198 216 CURVE SMOOTH",
"296 634 LINE",
"216 634 LINE",
"70 0 LINE"
);
}
);
width = 805;
}
);
unicode = 1725;
},
{
glyphname = uni1726;
lastChange = "2017-09-05 20:14:34 +0000";
layers = (
{
anchors = (
{
name = Anchor2;
position = "{624, 722}";
}
);
layerId = UUID0;
paths = (
{
closed = 1;
nodes = (
"149 0 LINE",
"458 402 LINE SMOOTH",
"492 446 OFFCURVE",
"524 491 OFFCURVE",
"543 521 CURVE",
"538 486 OFFCURVE",
"534 422 OFFCURVE",
"532 385 CURVE SMOOTH",
"512 0 LINE",
"591 0 LINE",
"999 634 LINE",
"914 634 LINE",
"669 253 LINE SMOOTH",
"638 205 OFFCURVE",
"615 170 OFFCURVE",
"589 121 CURVE",
"597 172 OFFCURVE",
"600 218 OFFCURVE",
"602 260 CURVE SMOOTH",
"623 634 LINE",
"544 634 LINE",
"284 289 LINE SMOOTH",
"250 244 OFFCURVE",
"208 188 OFFCURVE",
"177 148 CURVE",
"190 192 OFFCURVE",
"205 247 OFFCURVE",
"218 303 CURVE SMOOTH",
"296 634 LINE",
"216 634 LINE",
"70 0 LINE"
);
}
);
width = 960;
}
);
unicode = 1726;
},
{
glyphname = uni1727;
lastChange = "2017-09-05 20:14:34 +0000";
layers = (
{
layerId = UUID0;
paths = (
{
closed = 1;
nodes = (
"217 0 LINE",
"459 153 OFFCURVE",
"720 435 OFFCURVE",
"901 634 CURVE",
"805 634 LINE",
"666 480 OFFCURVE",
"494 307 OFFCURVE",
"336 175 CURVE SMOOTH",
"303 148 OFFCURVE",
"266 117 OFFCURVE",
"234 93 CURVE",
"249 142 OFFCURVE",
"257 177 OFFCURVE",
"266 216 CURVE SMOOTH",
"271 236 LINE SMOOTH",
"294 335 OFFCURVE",
"299 351 OFFCURVE",
"299 389 CURVE SMOOTH",
"299 413 OFFCURVE",
"287 437 OFFCURVE",
"256 437 CURVE SMOOTH",
"233 437 OFFCURVE",
"211 428 OFFCURVE",
"185 417 CURVE SMOOTH",
"22 351 LINE",
"2 264 LINE",
"219 354 LINE",
"138 0 LINE"
);
},
{
closed = 1;
nodes = (
"333 500 LINE",
"373 674 LINE",
"293 674 LINE",
"253 500 LINE"
);
}
);
width = 870;
}
);
unicode = 1727;
},
{
glyphname = uni1728;
lastChange = "2017-09-05 20:14:34 +0000";
layers = (
{
anchors = (
{
name = Anchor2;
position = "{712, 722}";
},
{
name = Anchor4;
position = "{664, 0}";
}
);
layerId = UUID0;
paths = (
{
closed = 1;
nodes = (
"285 0 LINE",
"434 481 LINE",
"487 447 OFFCURVE",
"555 419 OFFCURVE",
"621 402 CURVE",
"496 0 LINE",
"577 0 LINE",
"697 386 LINE",
"717 383 OFFCURVE",
"736 382 OFFCURVE",
"754 382 CURVE SMOOTH",
"844 382 OFFCURVE",
"910 437 OFFCURVE",
"910 520 CURVE SMOOTH",
"910 582 OFFCURVE",
"856 619 OFFCURVE",
"795 619 CURVE SMOOTH",
"707 619 OFFCURVE",
"671 554 OFFCURVE",
"642 467 CURVE",
"572 485 OFFCURVE",
"501 518 OFFCURVE",
"455 548 CURVE",
"482 634 LINE",
"399 634 LINE",
"358 613 OFFCURVE",
"319 605 OFFCURVE",
"266 605 CURVE SMOOTH",
"213 605 OFFCURVE",
"151 618 OFFCURVE",
"103 634 CURVE",
"76 572 LINE",
"125 549 OFFCURVE",
"214 537 OFFCURVE",
"264 537 CURVE SMOOTH",
"296 537 OFFCURVE",
"343 542 OFFCURVE",
"376 554 CURVE",
"204 0 LINE"
);
},
{
closed = 1;
nodes = (
"744 451 OFFCURVE",
"731 452 OFFCURVE",
"718 454 CURVE",
"738 514 OFFCURVE",
"757 551 OFFCURVE",
"797 551 CURVE SMOOTH",
"824 551 OFFCURVE",
"838 533 OFFCURVE",
"838 511 CURVE SMOOTH",
"838 480 OFFCURVE",
"814 451 OFFCURVE",
"757 451 CURVE SMOOTH"
);
}
);
width = 966;
}
);
unicode = 1728;
},
{
glyphname = uni1729;
lastChange = "2017-09-05 20:14:34 +0000";
layers = (
{
layerId = UUID0;
paths = (
{
closed = 1;
nodes = (
"215 0 LINE",
"321 67 OFFCURVE",
"429 158 OFFCURVE",
"534 257 CURVE",
"727 48 LINE",
"780 96 LINE",
"586 306 LINE",
"701 418 OFFCURVE",
"810 537 OFFCURVE",
"899 634 CURVE",
"803 634 LINE",
"664 480 OFFCURVE",
"492 307 OFFCURVE",
"334 175 CURVE SMOOTH",
"301 148 OFFCURVE",
"264 117 OFFCURVE",
"232 93 CURVE",
"247 142 OFFCURVE",
"254 177 OFFCURVE",
"264 216 CURVE SMOOTH",
"291 327 LINE SMOOTH",
"315 426 OFFCURVE",
"326 473 OFFCURVE",
"326 511 CURVE SMOOTH",
"326 535 OFFCURVE",
"314 559 OFFCURVE",
"283 559 CURVE SMOOTH",
"260 559 OFFCURVE",
"239 552 OFFCURVE",
"213 542 CURVE SMOOTH",
"50 480 LINE",
"31 396 LINE",
"247 478 LINE",
"136 0 LINE"
);
}
);
width = 873;
}
);
unicode = 1729;
},
{
glyphname = uni172A;
lastChange = "2017-09-05 20:14:34 +0000";
layers = (
{
anchors = (
{
name = Anchor2;
position = "{390, 722}";
},
{
name = Anchor4;
position = "{332, 0}";
}
);
layerId = UUID0;
paths = (
{
closed = 1;
nodes = (
"242 0 LINE",
"529 634 LINE",
"470 634 LINE",
"422 617 OFFCURVE",
"344 611 OFFCURVE",
"285 611 CURVE SMOOTH",
"206 611 OFFCURVE",
"154 620 OFFCURVE",
"106 634 CURVE",
"81 573 LINE",
"126 553 OFFCURVE",
"202 543 OFFCURVE",
"274 543 CURVE SMOOTH",
"316 543 OFFCURVE",
"361 545 OFFCURVE",
"408 553 CURVE",
"157 0 LINE"
);
}
);
width = 519;
}
);
unicode = 172A;
},
{
glyphname = uni172B;
lastChange = "2017-09-05 20:14:34 +0000";
layers = (
{
anchors = (
{
name = Anchor2;
position = "{263, 722}";
}
);
layerId = UUID0;
paths = (
{
closed = 1;
nodes = (
"214 0 LINE",
"314 63 OFFCURVE",
"418 149 OFFCURVE",
"518 242 CURVE",
"739 54 LINE",
"787 109 LINE",
"570 291 LINE",
"691 408 OFFCURVE",
"805 532 OFFCURVE",
"898 634 CURVE",
"802 634 LINE",
"715 538 OFFCURVE",
"616 434 OFFCURVE",
"515 338 CURVE",
"328 495 LINE",
"333 520 OFFCURVE",
"336 540 OFFCURVE",
"336 552 CURVE SMOOTH",
"336 576 OFFCURVE",
"324 600 OFFCURVE",
"293 600 CURVE SMOOTH",
"270 600 OFFCURVE",
"248 592 OFFCURVE",
"222 581 CURVE SMOOTH",
"60 512 LINE",
"40 425 LINE",
"257 519 LINE",
"135 0 LINE"
);
},
{
closed = 1;
nodes = (
"260 185 OFFCURVE",
"285 325 OFFCURVE",
"310 418 CURVE",
"462 289 LINE",
"419 249 OFFCURVE",
"375 210 OFFCURVE",
"333 175 CURVE SMOOTH",
"300 148 OFFCURVE",
"263 117 OFFCURVE",
"231 93 CURVE"
);
}
);
width = 872;
}
);
unicode = 172B;
},
{
glyphname = uni172C;
lastChange = "2017-09-05 20:14:34 +0000";
layers = (
{
anchors = (
{
name = Anchor2;
position = "{693, 722}";
},
{
name = Anchor4;
position = "{742, 0}";
}
);
layerId = UUID0;
paths = (
{
closed = 1;
nodes = (
"240 0 LINE",
"566 358 LINE SMOOTH",
"592 386 OFFCURVE",
"674 478 OFFCURVE",
"699 510 CURVE",
"688 473 OFFCURVE",
"679 431 OFFCURVE",
"671 396 CURVE SMOOTH",
"579 0 LINE",
"659 0 LINE",
"805 634 LINE",
"726 634 LINE",
"382 261 LINE SMOOTH",
"334 209 OFFCURVE",
"303 168 OFFCURVE",
"267 124 CURVE",
"281 169 OFFCURVE",
"291 224 OFFCURVE",
"302 268 CURVE SMOOTH",
"337 411 LINE SMOOTH",
"359 501 OFFCURVE",
"370 548 OFFCURVE",
"370 586 CURVE SMOOTH",
"370 610 OFFCURVE",
"358 635 OFFCURVE",
"327 635 CURVE SMOOTH",
"303 635 OFFCURVE",
"284 629 OFFCURVE",
"256 615 CURVE SMOOTH",
"62 520 LINE",
"41 430 LINE",
"288 551 LINE",
"161 0 LINE"
);
}
);
width = 875;
}
);
unicode = 172C;
},
{
glyphname = uni172D;
lastChange = "2017-09-05 20:14:34 +0000";
layers = (
{
layerId = UUID0;
paths = (
{
closed = 1;
nodes = (
"539 295 LINE",
"555 363 LINE",
"84 363 LINE",
"68 295 LINE"
);
}
);
width = 613;
}
);
unicode = 172D;
},
{
glyphname = uni172E;
lastChange = "2017-09-05 20:14:34 +0000";
layers = (
{
anchors = (
{
name = Anchor2;
position = "{585, 722}";
}
);
layerId = UUID0;
paths = (
{
closed = 1;
nodes = (
"776 -90 OFFCURVE",
"829 4 OFFCURVE",
"829 84 CURVE SMOOTH",
"829 131 OFFCURVE",
"810 158 OFFCURVE",
"775 158 CURVE SMOOTH",
"758 158 OFFCURVE",
"744 154 OFFCURVE",
"729 148 CURVE SMOOTH",
"588 93 LINE",
"598 131 OFFCURVE",
"604 154 OFFCURVE",
"612 189 CURVE SMOOTH",
"714 634 LINE",
"635 634 LINE",
"291 261 LINE SMOOTH",
"243 209 OFFCURVE",
"212 168 OFFCURVE",
"176 124 CURVE",
"190 169 OFFCURVE",
"201 224 OFFCURVE",
"211 268 CURVE SMOOTH",
"296 634 LINE",
"216 634 LINE",
"70 0 LINE",
"149 0 LINE",
"475 358 LINE SMOOTH",
"501 386 OFFCURVE",
"583 478 OFFCURVE",
"608 510 CURVE",
"597 473 OFFCURVE",
"588 431 OFFCURVE",
"580 396 CURVE SMOOTH",
"488 0 LINE",
"539 0 LINE",
"757 81 LINE",
"757 10 OFFCURVE",
"692 -75 OFFCURVE",
"654 -121 CURVE",
"705 -165 LINE"
);
}
);
width = 892;
}
);
unicode = 172E;
},
{
glyphname = uni172F;
lastChange = "2017-09-05 20:14:34 +0000";
layers = (
{
anchors = (
{
name = Anchor2;
position = "{615, 722}";
},
{
name = Anchor4;
position = "{820, 219}";
}
);
layerId = UUID0;
paths = (
{
closed = 1;
nodes = (
"212 0 LINE",
"372 99 OFFCURVE",
"547 288 OFFCURVE",
"655 471 CURVE",
"671 400 OFFCURVE",
"735 350 OFFCURVE",
"810 350 CURVE SMOOTH",
"906 350 OFFCURVE",
"958 409 OFFCURVE",
"1015 493 CURVE",
"963 535 LINE",
"910 461 OFFCURVE",
"875 418 OFFCURVE",
"813 418 CURVE SMOOTH",
"765 418 OFFCURVE",
"712 451 OFFCURVE",
"712 560 CURVE SMOOTH",
"712 634 LINE",
"661 634 LINE",
"572 454 OFFCURVE",
"511 363 OFFCURVE",
"354 206 CURVE SMOOTH",
"324 176 OFFCURVE",
"288 139 OFFCURVE",
"263 117 CURVE",
"275 158 OFFCURVE",
"288 200 OFFCURVE",
"296 236 CURVE SMOOTH",
"335 402 LINE SMOOTH",
"358 501 OFFCURVE",
"370 548 OFFCURVE",
"370 586 CURVE SMOOTH",
"370 610 OFFCURVE",
"358 634 OFFCURVE",
"327 634 CURVE SMOOTH",
"304 634 OFFCURVE",
"281 627 OFFCURVE",
"256 615 CURVE SMOOTH",
"62 520 LINE",
"41 430 LINE",
"291 553 LINE",
"163 0 LINE"
);
}
);
width = 1017;
}
);
unicode = 172F;
},
{
glyphname = uni1730;
lastChange = "2017-09-05 20:14:34 +0000";
layers = (
{
anchors = (
{
name = Anchor2;
position = "{712, 722}";
}
);
layerId = UUID0;
paths = (
{
closed = 1;
nodes = (
"855 -139 LINE",
"855 -19 OFFCURVE",
"877 122 OFFCURVE",
"936 199 CURVE",
"873 199 LINE",
"816 153 OFFCURVE",
"716 95 OFFCURVE",
"639 78 CURVE",
"723 231 OFFCURVE",
"779 434 OFFCURVE",
"821 634 CURVE",
"742 634 LINE",
"578 466 OFFCURVE",
"389 264 OFFCURVE",
"200 121 CURVE",
"258 232 OFFCURVE",
"345 524 OFFCURVE",
"345 586 CURVE SMOOTH",
"345 610 OFFCURVE",
"333 634 OFFCURVE",
"302 634 CURVE SMOOTH",
"279 634 OFFCURVE",
"255 629 OFFCURVE",
"229 618 CURVE SMOOTH",
"67 551 LINE",
"48 467 LINE",
"264 555 LINE",
"222 384 OFFCURVE",
"178 239 OFFCURVE",
"64 0 CURVE",
"143 0 LINE",
"350 125 OFFCURVE",
"547 335 OFFCURVE",
"712 502 CURVE",
"672 342 OFFCURVE",
"605 166 OFFCURVE",
"526 0 CURVE",
"545 0 LINE SMOOTH",
"656 0 OFFCURVE",
"750 43 OFFCURVE",
"807 73 CURVE",
"793 31 OFFCURVE",
"782 -56 OFFCURVE",
"782 -139 CURVE"
);
}
);
width = 958;
}
);
unicode = 1730;
},
{
glyphname = uni1731;
lastChange = "2017-09-05 20:14:34 +0000";
layers = (
{
layerId = UUID0;
paths = (
{
closed = 1;
nodes = (
"148 0 LINE",
"390 153 OFFCURVE",
"651 435 OFFCURVE",
"832 634 CURVE",
"736 634 LINE",
"597 480 OFFCURVE",
"425 307 OFFCURVE",
"267 175 CURVE SMOOTH",
"234 148 OFFCURVE",
"197 117 OFFCURVE",
"165 93 CURVE",
"180 142 OFFCURVE",
"193 197 OFFCURVE",
"202 236 CURVE SMOOTH",
"295 634 LINE",
"216 634 LINE",
"69 0 LINE"
);
}
);
width = 805;
}
);
unicode = 1731;
},
{
glyphname = uni1732;
lastChange = "2017-09-05 20:14:34 +0000";
layers = (
{
anchors = (
{
name = _Anchor2;
position = "{-250, 722}";
}
);
layerId = UUID0;
paths = (
{
closed = 1;
nodes = (
"-119 732 LINE",
"-103 800 LINE",
"-393 800 LINE",
"-409 732 LINE"
);
}
);
width = 0;
}
);
unicode = 1732;
category = Mark;
subCategory = Nonspacing;
},
{
glyphname = uni1733;
lastChange = "2017-09-05 20:14:34 +0000";
layers = (
{
anchors = (
{
name = _Anchor4;
position = "{-235, 0}";
}
);
layerId = UUID0;
paths = (
{
closed = 1;
nodes = (
"-96 0 LINE",
"-80 68 LINE",
"-370 68 LINE",
"-386 0 LINE"
);
}
);
width = 0;
}
);
unicode = 1733;
category = Mark;
subCategory = Nonspacing;
},
{
glyphname = uni1734;
lastChange = "2017-09-05 20:14:34 +0000";
layers = (
{
layerId = UUID0;
paths = (
{
closed = 1;
nodes = (
"302 -139 OFFCURVE",
"557 338 OFFCURVE",
"629 750 CURVE",
"550 750 LINE",
"452 214 OFFCURVE",
"94 -71 OFFCURVE",
"-404 -71 CURVE",
"-419 -139 LINE"
);
}
);
width = 691;
}
);
unicode = 1734;
},
{
glyphname = uni1735;
lastChange = "2017-09-05 20:14:34 +0000";
layers = (
{
layerId = UUID0;
paths = (
{
closed = 1;
nodes = (
"87 -139 LINE",
"292 750 LINE",
"222 750 LINE",
"18 -139 LINE"
);
}
);
width = 329;
}
);
unicode = 1735;
},
{
glyphname = uni1736;
lastChange = "2017-09-05 20:14:34 +0000";
layers = (
{
layerId = UUID0;
paths = (
{
closed = 1;
nodes = (
"87 -139 LINE",
"292 750 LINE",
"222 750 LINE",
"18 -139 LINE"
);
},
{
closed = 1;
nodes = (
"246 -139 LINE",
"451 750 LINE",
"381 750 LINE",
"177 -139 LINE"
);
}
);
width = 488;
}
);
unicode = 1736;
},
{
glyphname = uni1725uni1732;
lastChange = "2017-09-05 20:14:34 +0000";
layers = (
{
layerId = UUID0;
paths = (
{
closed = 1;
nodes = (
"149 0 LINE",
"247 63 OFFCURVE",
"353 148 OFFCURVE",
"468 257 CURVE",
"661 48 LINE",
"714 96 LINE",
"522 307 LINE",
"592 376 OFFCURVE",
"695 484 OFFCURVE",
"833 634 CURVE",
"737 634 LINE",
"648 535 OFFCURVE",
"562 445 OFFCURVE",
"473 359 CURVE",
"434 398 OFFCURVE",
"394 436 OFFCURVE",
"353 471 CURVE",
"306 415 LINE",
"346 382 OFFCURVE",
"383 346 OFFCURVE",
"419 309 CURVE",
"325 220 OFFCURVE",
"242 149 OFFCURVE",
"166 93 CURVE",
"170 109 OFFCURVE",
"192 191 OFFCURVE",
"198 216 CURVE SMOOTH",
"296 634 LINE",
"216 634 LINE",
"70 0 LINE"
);
}
);
width = 805;
}
);
note = uni1725_i;
},
{
glyphname = uni1725uni1733;
lastChange = "2017-09-05 20:14:34 +0000";
layers = (
{
layerId = UUID0;
paths = (
{
closed = 1;
nodes = (
"149 0 LINE",
"247 63 OFFCURVE",
"353 148 OFFCURVE",
"468 257 CURVE",
"661 48 LINE",
"714 96 LINE",
"522 307 LINE",
"556 341 LINE",
"567 352 OFFCURVE",
"578 363 OFFCURVE",
"589 375 CURVE",
"657 314 OFFCURVE",
"717 250 OFFCURVE",
"779 177 CURVE",
"833 227 LINE",
"772 300 OFFCURVE",
"708 367 OFFCURVE",
"640 428 CURVE",
"695 485 OFFCURVE",
"758 552 OFFCURVE",
"833 634 CURVE",
"737 634 LINE",
"571 448 OFFCURVE",
"350 231 OFFCURVE",
"166 93 CURVE",
"170 109 OFFCURVE",
"189 177 OFFCURVE",
"198 216 CURVE SMOOTH",
"296 634 LINE",
"216 634 LINE",
"70 0 LINE"
);
}
);
width = 805;
}
);
note = uni1725_u;
},
{
glyphname = uni1726uni1733;
lastChange = "2017-09-05 20:14:34 +0000";
layers = (
{
layerId = UUID0;
paths = (
{
closed = 1;
nodes = (
"149 0 LINE",
"458 402 LINE SMOOTH",
"486 438 OFFCURVE",
"529 500 OFFCURVE",
"543 521 CURVE",
"541 499 OFFCURVE",
"535 442 OFFCURVE",
"532 385 CURVE SMOOTH",
"512 0 LINE",
"591 0 LINE",
"999 634 LINE",
"914 634 LINE",
"695 293 LINE SMOOTH",
"641 209 OFFCURVE",
"627 188 OFFCURVE",
"589 121 CURVE",
"596 167 OFFCURVE",
"599 211 OFFCURVE",
"602 260 CURVE SMOOTH",
"623 634 LINE",
"544 634 LINE",
"177 148 LINE",
"188 183 OFFCURVE",
"202 237 OFFCURVE",
"220 312 CURVE SMOOTH",
"296 634 LINE",
"216 634 LINE",
"70 0 LINE"
);
},
{
closed = 1;
nodes = (
"894 149 OFFCURVE",
"984 284 OFFCURVE",
"1023 354 CURVE",
"961 390 LINE",
"922 319 OFFCURVE",
"864 232 OFFCURVE",
"786 134 CURVE",
"842 93 LINE"
);
}
);
width = 986;
}
);
note = uni1726_u;
},
{
glyphname = uni1727uni1732;
lastChange = "2017-09-05 20:14:34 +0000";
layers = (
{
layerId = UUID0;
paths = (
{
closed = 1;
nodes = (
"217 0 LINE",
"431 134 OFFCURVE",
"675 384 OFFCURVE",
"901 634 CURVE",
"805 634 LINE",
"631 442 OFFCURVE",
"417 231 OFFCURVE",
"234 93 CURVE",
"250 148 OFFCURVE",
"255 167 OFFCURVE",
"271 236 CURVE SMOOTH",
"286 299 OFFCURVE",
"299 340 OFFCURVE",
"299 389 CURVE SMOOTH",
"299 413 OFFCURVE",
"287 437 OFFCURVE",
"256 437 CURVE SMOOTH",
"233 437 OFFCURVE",
"207 426 OFFCURVE",
"180 415 CURVE SMOOTH",
"22 351 LINE",
"2 264 LINE",
"219 354 LINE",
"138 0 LINE"
);
},
{
closed = 1;
nodes = (
"330 512 LINE",
"346 580 LINE",
"56 580 LINE",
"40 512 LINE"
);
}
);
width = 870;
}
);
note = uni1727_i;
},
{
glyphname = uni1727uni1733;
lastChange = "2017-09-05 20:14:34 +0000";
layers = (
{
layerId = UUID0;
paths = (
{
closed = 1;
nodes = (
"674 142 OFFCURVE",
"758 207 OFFCURVE",
"834 278 CURVE",
"784 331 LINE",
"729 280 OFFCURVE",
"678 234 OFFCURVE",
"539 141 CURVE",
"582 83 LINE"
);
},
{
closed = 1;
nodes = (
"333 500 LINE",
"373 674 LINE",
"293 674 LINE",
"253 500 LINE"
);
},
{
closed = 1;
nodes = (
"217 0 LINE",
"431 134 OFFCURVE",
"675 384 OFFCURVE",
"901 634 CURVE",
"805 634 LINE",
"631 442 OFFCURVE",
"417 231 OFFCURVE",
"234 93 CURVE",
"250 148 OFFCURVE",
"255 167 OFFCURVE",
"271 236 CURVE SMOOTH",
"286 299 OFFCURVE",
"299 340 OFFCURVE",
"299 389 CURVE SMOOTH",
"299 413 OFFCURVE",
"287 437 OFFCURVE",
"256 437 CURVE SMOOTH",
"233 437 OFFCURVE",
"207 426 OFFCURVE",
"180 415 CURVE SMOOTH",
"22 351 LINE",
"2 264 LINE",
"219 354 LINE",
"138 0 LINE"
);
}
);
width = 870;
}
);
note = uni1727_u;
},
{
glyphname = uni1729uni1732;
lastChange = "2017-09-05 20:14:34 +0000";
layers = (
{
layerId = UUID0;
paths = (
{
closed = 1;
nodes = (
"215 0 LINE",
"313 63 OFFCURVE",
"419 148 OFFCURVE",
"534 257 CURVE",
"727 48 LINE",
"780 96 LINE",
"586 306 LINE",
"664 381 OFFCURVE",
"768 491 OFFCURVE",
"899 634 CURVE",
"803 634 LINE",
"715 536 OFFCURVE",
"627 444 OFFCURVE",
"539 359 CURVE",
"500 399 OFFCURVE",
"460 436 OFFCURVE",
"419 471 CURVE",
"372 415 LINE",
"411 381 OFFCURVE",
"449 346 OFFCURVE",
"485 309 CURVE",
"391 221 OFFCURVE",
"307 149 OFFCURVE",
"232 93 CURVE",
"264 213 OFFCURVE",
"326 458 OFFCURVE",
"326 511 CURVE SMOOTH",
"326 535 OFFCURVE",
"314 559 OFFCURVE",
"283 559 CURVE SMOOTH",
"264 559 OFFCURVE",
"241 553 OFFCURVE",
"213 542 CURVE SMOOTH",
"50 480 LINE",
"31 396 LINE",
"247 478 LINE",
"136 0 LINE"
);
}
);
width = 873;
}
);
note = uni1729_i;
},
{
glyphname = uni1729uni1733;
lastChange = "2017-09-05 20:14:34 +0000";
layers = (
{
layerId = UUID0;
paths = (
{
closed = 1;
nodes = (
"215 0 LINE",
"313 63 OFFCURVE",
"419 148 OFFCURVE",
"534 257 CURVE",
"727 48 LINE",
"780 96 LINE",
"586 306 LINE",
"607 327 OFFCURVE",
"630 350 OFFCURVE",
"655 375 CURVE",
"722 315 OFFCURVE",
"783 250 OFFCURVE",
"845 177 CURVE",
"898 227 LINE",
"837 301 OFFCURVE",
"773 368 OFFCURVE",
"706 427 CURVE",
"762 486 OFFCURVE",
"826 555 OFFCURVE",
"899 634 CURVE",
"803 634 LINE",
"603 411 OFFCURVE",
"391 212 OFFCURVE",
"232 93 CURVE",
"264 213 OFFCURVE",
"326 458 OFFCURVE",
"326 511 CURVE SMOOTH",
"326 535 OFFCURVE",
"314 559 OFFCURVE",
"283 559 CURVE SMOOTH",
"264 559 OFFCURVE",
"241 553 OFFCURVE",
"213 542 CURVE SMOOTH",
"50 480 LINE",
"31 396 LINE",
"247 478 LINE",
"136 0 LINE"
);
}
);
width = 873;
}
);
note = uni1729_u;
},
{
glyphname = uni172Buni1733;
lastChange = "2017-09-05 20:14:34 +0000";
layers = (
{
layerId = UUID0;
paths = (
{
closed = 1;
nodes = (
"716 35 LINE SMOOTH",
"750 62 OFFCURVE",
"765 82 OFFCURVE",
"765 101 CURVE SMOOTH",
"765 122 OFFCURVE",
"747 142 OFFCURVE",
"709 174 CURVE SMOOTH",
"570 291 LINE",
"659 377 OFFCURVE",
"769 491 OFFCURVE",
"898 634 CURVE",
"802 634 LINE",
"689 511 OFFCURVE",
"595 414 OFFCURVE",
"515 338 CURVE",
"328 495 LINE",
"333 521 OFFCURVE",
"336 540 OFFCURVE",
"336 552 CURVE SMOOTH",
"336 563 OFFCURVE",
"333 576 OFFCURVE",
"326 585 CURVE SMOOTH",
"319 594 OFFCURVE",
"309 600 OFFCURVE",
"293 600 CURVE SMOOTH",
"278 600 OFFCURVE",
"253 594 OFFCURVE",
"222 581 CURVE SMOOTH",
"60 512 LINE",
"40 425 LINE",
"257 519 LINE",
"135 0 LINE",
"214 0 LINE",
"309 61 OFFCURVE",
"409 141 OFFCURVE",
"518 242 CURVE",
"682 102 LINE",
"641 61 OFFCURVE",
"596 24 OFFCURVE",
"545 -15 CURVE",
"593 -69 LINE"
);
},
{
closed = 1;
nodes = (
"247 149 OFFCURVE",
"249 157 OFFCURVE",
"263 216 CURVE SMOOTH",
"310 418 LINE",
"462 289 LINE",
"430 256 OFFCURVE",
"284 130 OFFCURVE",
"231 93 CURVE"
);
}
);
width = 872;
}
);
note = uni172B_u;
},
{
glyphname = uni172Duni1732;
lastChange = "2017-09-05 20:14:34 +0000";
layers = (
{
layerId = UUID0;
paths = (
{
closed = 1;
nodes = (
"276 0 LINE",
"344 295 LINE",
"554 295 LINE",
"570 363 LINE",
"360 363 LINE",
"405 561 LINE",
"568 535 LINE",
"587 602 LINE",
"463 625 LINE SMOOTH",
"440 629 OFFCURVE",
"413 634 OFFCURVE",
"391 634 CURVE SMOOTH",
"360 634 OFFCURVE",
"333 603 OFFCURVE",
"324 562 CURVE SMOOTH",
"279 363 LINE",
"84 363 LINE",
"68 295 LINE",
"264 295 LINE",
"197 0 LINE"
);
}
);
width = 646;
}
);
note = uni172D_i;
},
{
glyphname = uni172Duni1733;
lastChange = "2017-09-05 20:14:34 +0000";
layers = (
{
layerId = UUID0;
paths = (
{
closed = 1;
nodes = (
"265 -7 OFFCURVE",
"295 -2 OFFCURVE",
"320 2 CURVE SMOOTH",
"454 25 LINE",
"466 92 LINE",
"292 67 LINE",
"344 295 LINE",
"554 295 LINE",
"570 363 LINE",
"359 363 LINE",
"419 626 LINE",
"339 626 LINE",
"279 363 LINE",
"84 363 LINE",
"68 295 LINE",
"264 295 LINE",
"220 105 LINE SMOOTH",
"217 93 OFFCURVE",
"207 49 OFFCURVE",
"207 39 CURVE SMOOTH",
"207 14 OFFCURVE",
"216 -7 OFFCURVE",
"243 -7 CURVE SMOOTH"
);
}
);
width = 646;
}
);
note = uni172D_u;
},
{
glyphname = uni172Euni1733;
lastChange = "2017-09-05 20:14:34 +0000";
layers = (
{
layerId = UUID0;
paths = (
{
closed = 1;
nodes = (
"782 -85 OFFCURVE",
"829 11 OFFCURVE",
"829 84 CURVE SMOOTH",
"829 133 OFFCURVE",
"811 158 OFFCURVE",
"775 158 CURVE SMOOTH",
"759 158 OFFCURVE",
"744 154 OFFCURVE",
"729 148 CURVE SMOOTH",
"588 93 LINE",
"592 107 OFFCURVE",
"605 160 OFFCURVE",
"626 250 CURVE SMOOTH",
"714 634 LINE",
"635 634 LINE",
"229 190 LINE SMOOTH",
"210 169 OFFCURVE",
"194 146 OFFCURVE",
"176 124 CURVE",
"183 147 OFFCURVE",
"189 171 OFFCURVE",
"195 197 CURVE SMOOTH",
"296 634 LINE",
"216 634 LINE",
"70 0 LINE",
"149 0 LINE",
"557 449 LINE SMOOTH",
"584 478 OFFCURVE",
"600 499 OFFCURVE",
"608 510 CURVE",
"488 0 LINE",
"539 0 LINE",
"757 81 LINE",
"757 30 OFFCURVE",
"723 -38 OFFCURVE",
"654 -121 CURVE",
"705 -165 LINE"
);
},
{
closed = 1;
nodes = (
"852 229 LINE",
"868 297 LINE",
"674 297 LINE",
"658 229 LINE"
);
}
);
width = 892;
}
);
note = uni172E_u;
},
{
glyphname = uni1730uni1733;
lastChange = "2017-09-05 20:14:34 +0000";
layers = (
{
layerId = UUID0;
paths = (
{
closed = 1;
nodes = (
"855 -139 LINE",
"855 1 OFFCURVE",
"884 129 OFFCURVE",
"936 199 CURVE",
"873 199 LINE",
"802 141 OFFCURVE",
"699 90 OFFCURVE",
"639 78 CURVE",
"708 206 OFFCURVE",
"769 391 OFFCURVE",
"821 634 CURVE",
"742 634 LINE",
"471 351 OFFCURVE",
"345 231 OFFCURVE",
"200 121 CURVE",
"219 161 OFFCURVE",
"237 204 OFFCURVE",
"254 249 CURVE SMOOTH",
"287 338 OFFCURVE",
"345 535 OFFCURVE",
"345 586 CURVE SMOOTH",
"345 610 OFFCURVE",
"333 634 OFFCURVE",
"302 634 CURVE SMOOTH",
"279 634 OFFCURVE",
"254 628 OFFCURVE",
"229 618 CURVE SMOOTH",
"67 551 LINE",
"48 467 LINE",
"264 555 LINE",
"208 328 OFFCURVE",
"154 191 OFFCURVE",
"64 0 CURVE",
"143 0 LINE",
"265 73 OFFCURVE",
"412 197 OFFCURVE",
"583 371 CURVE SMOOTH",
"712 502 LINE",
"655 298 OFFCURVE",
"606 167 OFFCURVE",
"526 0 CURVE",
"545 0 LINE SMOOTH",
"627 0 OFFCURVE",
"714 24 OFFCURVE",
"807 73 CURVE",
"791 24 OFFCURVE",
"782 -46 OFFCURVE",
"782 -139 CURVE"
);
},
{
closed = 1;
nodes = (
"959 269 LINE",
"976 336 LINE",
"782 336 LINE",
"766 269 LINE"
);
}
);
width = 958;
}
);
note = uni1730_u;
},
{
glyphname = uni1731uni1732;
lastChange = "2017-09-05 20:14:34 +0000";
layers = (
{
layerId = UUID0;
paths = (
{
closed = 1;
nodes = (
"148 0 LINE",
"316 105 OFFCURVE",
"544 316 OFFCURVE",
"832 634 CURVE",
"736 634 LINE",
"570 448 OFFCURVE",
"349 231 OFFCURVE",
"165 93 CURVE",
"171 117 OFFCURVE",
"194 202 OFFCURVE",
"202 235 CURVE SMOOTH",
"295 634 LINE",
"216 634 LINE",
"69 0 LINE"
);
},
{
closed = 1;
nodes = (
"542 648 OFFCURVE",
"633 744 OFFCURVE",
"686 808 CURVE",
"631 852 LINE",
"584 793 OFFCURVE",
"521 725 OFFCURVE",
"437 649 CURVE",
"485 599 LINE"
);
}
);
width = 805;
}
);
note = uni1731_i;
},
{
glyphname = uni1731uni1733;
lastChange = "2017-09-05 20:14:34 +0000";
layers = (
{
layerId = UUID0;
paths = (
{
closed = 1;
nodes = (
"148 0 LINE",
"316 105 OFFCURVE",
"544 316 OFFCURVE",
"832 634 CURVE",
"736 634 LINE",
"570 448 OFFCURVE",
"349 231 OFFCURVE",
"165 93 CURVE",
"171 117 OFFCURVE",
"197 215 OFFCURVE",
"202 236 CURVE SMOOTH",
"295 634 LINE",
"216 634 LINE",
"69 0 LINE"
);
},
{
closed = 1;
nodes = (
"599 150 OFFCURVE",
"725 279 OFFCURVE",
"765 333 CURVE",
"708 378 LINE",
"657 315 OFFCURVE",
"586 240 OFFCURVE",
"492 156 CURVE",
"542 105 LINE"
);
}
);
width = 805;
}
);
note = uni1731_u;
},
{
glyphname = uni1735.alt;
lastChange = "2017-09-05 20:14:34 +0000";
layers = (
{
layerId = UUID0;
paths = (
{
closed = 1;
nodes = (
"199 -139 LINE",
"199 750 LINE",
"129 750 LINE",
"129 -139 LINE"
);
}
);
width = 329;
}
);
},
{
glyphname = uni1736.alt;
lastChange = "2017-09-05 20:14:34 +0000";
layers = (
{
layerId = UUID0;
paths = (
{
closed = 1;
nodes = (
"359 -139 LINE",
"359 750 LINE",
"289 750 LINE",
"289 -139 LINE"
);
},
{
closed = 1;
nodes = (
"199 -139 LINE",
"199 750 LINE",
"129 750 LINE",
"129 -139 LINE"
);
}
);
width = 488;
}
);
},
